<svg  viewBox="32.998 37 134.003 126" height="200" width="200" xmlns="http://www.w3.org/2000/svg">
    <g>
        <path d="M78.913 85.444A26.407 26.407 0 0 0 100 74.988c4.818 6.35 12.469 10.456 21.087 10.456s16.269-4.106 21.087-10.456v-10.68H57.826v10.68a26.407 26.407 0 0 0 21.087 10.456z" fill="#D6EADE" data-color="1"></path>
        <path d="M45.756 95.759v25.353c11.084 0 20.925-5.281 27.122-13.448 6.197 8.167 16.038 13.448 27.122 13.448s20.925-5.281 27.122-13.448c6.197 8.167 16.038 13.448 27.122 13.448V95.759H45.756z" fill="#D6EADE" data-color="1"></path>
        <path d="M164.498 140.406h-7.753V95.759a2.495 2.495 0 0 0-2.502-2.487h-9.568V64.309a2.495 2.495 0 0 0-2.502-2.487H57.826a2.494 2.494 0 0 0-2.502 2.487v28.964h-9.569a2.494 2.494 0 0 0-2.502 2.487v44.647H35.5c-1.382 0-2.502 1.113-2.502 2.487s1.12 2.487 2.502 2.487h61.996v12.647H83.98c-1.382 0-2.502 1.113-2.502 2.487S82.598 163 83.98 163h32.041c1.382 0 2.502-1.113 2.502-2.487s-1.12-2.487-2.502-2.487h-13.519V145.38h61.997c1.382 0 2.502-1.113 2.502-2.487s-1.121-2.487-2.503-2.487zm-104.17-73.61h79.344v7.321c-4.564 5.624-11.288 8.84-18.585 8.84-7.567 0-14.525-3.451-19.089-9.467-.473-.623-1.212-.989-1.997-.989s-1.525.366-1.997.989c-4.565 6.016-11.523 9.467-19.089 9.467-7.297 0-14.021-3.216-18.585-8.84v-7.321zm0 14.416c5.148 4.322 11.653 6.719 18.585 6.719 8.108 0 15.637-3.275 21.087-9.08 5.45 5.805 12.979 9.08 21.087 9.08 6.932 0 13.437-2.397 18.585-6.719v12.061H60.328V81.212zm91.414 59.194H48.258v-16.9c9.524-.634 18.262-4.866 24.62-11.929 6.911 7.677 16.633 12.022 27.122 12.022s20.21-4.345 27.122-12.022c6.359 7.062 15.097 11.294 24.62 11.929v16.9zm0-21.889c-8.978-.695-17.122-5.102-22.623-12.351-.473-.623-1.212-.989-1.997-.989s-1.525.366-1.997.989c-6.008 7.918-15.165 12.459-25.124 12.459s-19.117-4.541-25.125-12.459a2.506 2.506 0 0 0-1.997-.989c-.785 0-1.525.366-1.998.989-5.501 7.249-13.644 11.656-22.623 12.351V98.246h103.484v20.271z" fill="#57BBB9" data-color="2"></path>
        <path fill="#57BBB9" d="M63.363 131.042a2.679 2.679 0 0 1-2.687 2.671 2.679 2.679 0 0 1-2.687-2.671 2.679 2.679 0 0 1 2.687-2.671 2.679 2.679 0 0 1 2.687 2.671z" data-color="2"></path>
        <path fill="#57BBB9" d="M83.025 131.042a2.679 2.679 0 0 1-2.687 2.671 2.679 2.679 0 0 1-2.687-2.671 2.679 2.679 0 0 1 2.687-2.671 2.679 2.679 0 0 1 2.687 2.671z" data-color="2"></path>
        <path fill="#57BBB9" d="M102.687 131.042a2.679 2.679 0 0 1-2.687 2.671 2.679 2.679 0 0 1-2.687-2.671 2.679 2.679 0 0 1 2.687-2.671 2.679 2.679 0 0 1 2.687 2.671z" data-color="2"></path>
        <path fill="#57BBB9" d="M122.349 131.042a2.679 2.679 0 0 1-2.687 2.671 2.679 2.679 0 0 1-2.687-2.671 2.679 2.679 0 0 1 2.687-2.671 2.679 2.679 0 0 1 2.687 2.671z" data-color="2"></path>
        <path fill="#57BBB9" d="M142.011 131.042a2.679 2.679 0 0 1-2.687 2.671 2.679 2.679 0 0 1-2.687-2.671 2.679 2.679 0 0 1 2.687-2.671 2.679 2.679 0 0 1 2.687 2.671z" data-color="2"></path>
        <path d="M98.231 58.13c.489.486 1.129.728 1.769.728s1.28-.242 1.769-.728l6.395-6.356a2.476 2.476 0 0 0 0-3.517 2.51 2.51 0 0 0-3.538 0L100 52.855l-4.625-4.598a2.51 2.51 0 0 0-3.538 0 2.476 2.476 0 0 0 0 3.517l6.394 6.356z" fill="#57BBB9" data-color="2"></path>
        <path fill="#57BBB9" d="M43.911 53.193a2.552 2.552 0 0 1-2.559 2.544 2.552 2.552 0 0 1-2.559-2.544 2.552 2.552 0 0 1 2.559-2.544 2.552 2.552 0 0 1 2.559 2.544z" data-color="2"></path>
        <path fill="#57BBB9" d="M63.537 39.544a2.552 2.552 0 0 1-2.559 2.544 2.552 2.552 0 0 1-2.559-2.544A2.552 2.552 0 0 1 60.978 37a2.552 2.552 0 0 1 2.559 2.544z" data-color="2"></path>
    </g>
</svg>