<svg viewBox="43 16 114 167.999" height="200" width="200" xmlns="http://www.w3.org/2000/svg">
    <g>
        <path d="M122.838 18.502c-9.588 0-17.981 5.066-22.702 12.663 1.808 1.363 3.326 2.975 4.837 4.683 3.228 2.301 5.85 5.748 7.167 9.221.9 1.617 1.651 3.32 2.223 5.075 2.653 8.147-.121 16.851-1.17 25.013-.17 1.323-.713 2.349-1.442 3.117a5.521 5.521 0 0 1-.165.72 44.207 44.207 0 0 0 11.254 7.048c15.733-6.793 26.749-22.471 26.749-40.731-.003-14.806-11.978-26.809-26.751-26.809z" fill="#D6EADE" data-color="1"></path>
        <path fill="#57BBB9" d="M48.61 27.516a2.808 2.808 0 0 1-2.805 2.811A2.808 2.808 0 0 1 43 27.516a2.808 2.808 0 0 1 2.805-2.811 2.808 2.808 0 0 1 2.805 2.811z" data-color="2"></path>
        <path d="M122.838 16c-9.743 0-18.375 4.81-23.692 12.174a33.319 33.319 0 0 0-14.187-3.16c-18.523 0-33.592 15.103-33.592 33.667 0 19.807 10.758 37.826 27.805 47.279l-2.977 1.383a2.505 2.505 0 0 0-1.215 3.323 2.494 2.494 0 0 0 3.315 1.218l3.938-1.829a6.463 6.463 0 0 1 5.452 0l3.938 1.829c.34.158.697.233 1.048.233a2.505 2.505 0 0 0 1.052-4.774l-2.977-1.383a53.947 53.947 0 0 0 21.995-22.867 46.795 46.795 0 0 0 4.379 2.847l-1.967.914a2.505 2.505 0 0 0 1.052 4.774c.351 0 .708-.075 1.048-.233l3.388-1.574a5.202 5.202 0 0 1 4.396 0l3.387 1.574a2.497 2.497 0 0 0 3.316-1.218 2.505 2.505 0 0 0-1.215-3.323l-1.937-.9c14.427-8.28 23.497-23.71 23.497-40.643C152.083 29.149 138.964 16 122.838 16zm-37.88 87.293c-17.41-7.973-28.599-25.365-28.599-44.612 0-15.805 12.829-28.663 28.599-28.663 15.769 0 28.598 12.858 28.598 28.663 0 19.246-11.188 36.639-28.598 44.612zm37.88-19.991a41.69 41.69 0 0 1-8.007-4.89 54.11 54.11 0 0 0 3.719-19.731c0-7.95-2.77-15.259-7.384-21.026 2.665-3.721 6.898-6.142 11.672-6.142a2.5 2.5 0 0 0 2.497-2.502 2.5 2.5 0 0 0-2.497-2.502c-6.091 0-11.532 2.9-15.13 7.428a33.884 33.884 0 0 0-4.181-3.295c4.433-5.848 11.435-9.638 19.311-9.638 13.373 0 24.252 10.904 24.252 24.307 0 16.365-9.484 31.159-24.252 37.991z" fill="#57BBB9" data-color="2"></path>
        <path d="M84.957 37.231c-12.344 0-22.386 10.409-22.386 23.203a2.5 2.5 0 0 0 2.497 2.502 2.5 2.5 0 0 0 2.497-2.502c0-10.034 7.803-18.198 17.393-18.198a2.5 2.5 0 0 0 2.497-2.502 2.501 2.501 0 0 0-2.498-2.503z" fill="#57BBB9" data-color="2"></path>
        <path d="M68.674 68.962a2.494 2.494 0 0 0-3.057-1.771 2.503 2.503 0 0 0-1.767 3.064c.282 1.057.614 2.114.988 3.142a2.497 2.497 0 0 0 3.2 1.495 2.504 2.504 0 0 0 1.492-3.208 33.03 33.03 0 0 1-.856-2.722z" fill="#57BBB9" data-color="2"></path>
        <path d="M87.518 128.712v-12.606a2.5 2.5 0 0 0-2.497-2.502 2.5 2.5 0 0 0-2.497 2.502v12.606c0 8.293 2.737 13.279 5.384 18.101 2.825 5.146 5.747 10.467 5.747 20.712v13.971a2.5 2.5 0 0 0 2.497 2.503 2.5 2.5 0 0 0 2.497-2.503v-13.971c0-11.531-3.381-17.691-6.365-23.125-2.557-4.658-4.766-8.681-4.766-15.688z" fill="#57BBB9" data-color="2"></path>
        <path d="M125.448 104.505v-9.174a2.5 2.5 0 0 0-2.497-2.502 2.5 2.5 0 0 0-2.497 2.502v9.174c0 6.199 1.992 9.902 3.918 13.483 2.067 3.842 4.019 7.471 4.019 14.763v10.168c0 1.382 1.118 2.502 2.497 2.502s2.497-1.12 2.497-2.502v-10.168c0-8.555-2.452-13.115-4.617-17.138-1.782-3.313-3.32-6.173-3.32-11.108z" fill="#57BBB9" data-color="2"></path>
        <path fill="#57BBB9" d="M157 88.853a2.808 2.808 0 0 1-2.805 2.811 2.808 2.808 0 0 1-2.805-2.811 2.808 2.808 0 0 1 2.805-2.811A2.808 2.808 0 0 1 157 88.853z" data-color="2"></path>
    </g>
</svg>