<svg viewBox="48.5 46 102.998 108.001" height="200" width="200" xmlns="http://www.w3.org/2000/svg">
    <g>
        <path fill="#D6EADE" d="M108.392 64.814v86.672H91.607V64.814h16.785z" data-color="1"></path>
        <path d="M148.988 62.3h-19.416a10.589 10.589 0 0 0 1.627-5.636c0-5.88-4.781-10.664-10.658-10.664a10.52 10.52 0 0 0-6.588 2.289L100 59.088 86.071 48.307A10.545 10.545 0 0 0 79.459 46c-5.877 0-10.658 4.784-10.658 10.664 0 2.07.602 3.999 1.627 5.636H51.012a2.512 2.512 0 0 0-2.512 2.514v18.649a2.514 2.514 0 0 0 2.512 2.514h3.582v65.51a2.514 2.514 0 0 0 2.512 2.514h85.786a2.512 2.512 0 0 0 2.512-2.514v-65.51h3.582a2.512 2.512 0 0 0 2.512-2.514V64.814a2.51 2.51 0 0 0-2.51-2.514zM117.05 52.248a5.569 5.569 0 0 1 3.49-1.22 5.642 5.642 0 0 1 5.634 5.637 5.641 5.641 0 0 1-5.625 5.636H104.15l-.043-.034 12.943-10.019zm-43.224 4.416a5.642 5.642 0 0 1 5.634-5.637c1.277 0 2.484.422 3.514 1.238l12.921 10.001-.045.034H79.451a5.641 5.641 0 0 1-5.625-5.636zM53.525 67.328h35.571v13.621H53.525V67.328zm6.094 53.182h7.04c1.388 0 2.512-1.125 2.512-2.514s-1.125-2.514-2.512-2.514h-7.04V85.976h29.476v62.996H59.619V120.51zm34.501 28.463V67.328h11.761v81.645H94.12zm46.261 0h-29.476v-13.346h8.226a2.514 2.514 0 1 0 0-5.028h-8.226V85.976h29.476v62.997zm6.094-68.024h-35.57V67.328h35.571v13.621z" fill="#57BBB9" data-color="2"></path>
        <path d="M77.695 97.017h-.897c-1.388 0-2.512 1.125-2.512 2.514s1.125 2.514 2.512 2.514h.897c1.388 0 2.512-1.125 2.512-2.514s-1.125-2.514-2.512-2.514z" fill="#57BBB9" data-color="2"></path>
        <path d="M127.78 135.627h.897a2.514 2.514 0 1 0 0-5.028h-.897a2.512 2.512 0 0 0-2.512 2.514 2.513 2.513 0 0 0 2.512 2.514z" fill="#57BBB9" data-color="2"></path>
    </g>
</svg>