<svg viewBox="38.501 44.001 122.999 111.997" height="200" width="200" xmlns="http://www.w3.org/2000/svg">
    <g>
        <path fill="#D6EADE" d="M141.982 81.589l-16.333 8.27-5.84-17.449 5.307-4.286 16.085 6.658.781 6.807z" data-color="1"></path>
        <path d="M131.202 89.856l11.899-6.025a2.513 2.513 0 0 0 1.356-2.531l-.781-6.807a2.508 2.508 0 0 0-1.528-2.033l-16.084-6.659a2.477 2.477 0 0 0-2.506.364l-5.307 4.286a2.521 2.521 0 0 0-.802 2.76l4.254 12.711a34.891 34.891 0 0 0-17.801.217c-6.218-10.182-17.38-16.987-30.093-16.987-19.469 0-35.308 15.954-35.308 35.565s15.839 35.565 35.308 35.565a35 35 0 0 0 9.267-1.251 35.11 35.11 0 0 0 16.677 14.297 34.905 34.905 0 0 0 13.376 2.67 35.364 35.364 0 0 0 32.704-22.047c6.736-16.512.185-35.245-14.631-44.095zm-5.674-18.849l13.366 5.534.413 3.594-12.214 6.184-4.367-13.048 2.802-2.264zm-51.72 64.259c-16.722 0-30.326-13.703-30.326-30.547s13.604-30.547 30.326-30.547c10.536 0 19.831 5.443 25.268 13.682-8.121 3.564-14.935 10.174-18.56 19.06-3.585 8.787-3.558 18.454.075 27.221.045.108.095.211.141.318a30.067 30.067 0 0 1-6.924.813zm30.326-30.547c0 12.672-7.701 23.563-18.634 28.183-.103-.233-.212-.463-.31-.7-3.12-7.53-3.143-15.833-.064-23.38 3.177-7.787 9.208-13.528 16.37-16.542a30.566 30.566 0 0 1 2.638 12.439zm37.089 27.326c-6.356 15.579-24.11 23.046-39.576 16.642a30.153 30.153 0 0 1-13.748-11.367c12.475-5.492 21.217-18.035 21.217-32.602 0-4.971-1.021-9.705-2.858-14.005a30.092 30.092 0 0 1 6.954-.827c3.833 0 7.73.737 11.489 2.294 15.467 6.403 22.878 24.286 16.522 39.865z" fill="#57BBB9" data-color="2"></path>
        <path d="M139.875 58.755c.322.14.657.206.986.206.964 0 1.882-.567 2.289-1.516l3.714-8.665a2.517 2.517 0 0 0-1.3-3.299 2.484 2.484 0 0 0-3.275 1.309l-3.714 8.665a2.519 2.519 0 0 0 1.3 3.3z" fill="#57BBB9" data-color="2"></path>
        <path d="M125.148 55.908a2.494 2.494 0 0 0 2.359 1.706c.265 0 .534-.043.799-.133a2.514 2.514 0 0 0 1.561-3.182l-2.887-8.594a2.488 2.488 0 0 0-3.159-1.573 2.514 2.514 0 0 0-1.561 3.182l2.888 8.594z" fill="#57BBB9" data-color="2"></path>
        <path d="M161.265 60.485a2.484 2.484 0 0 0-3.311-1.212l-8.014 3.77a2.516 2.516 0 0 0-1.203 3.335 2.49 2.49 0 0 0 2.259 1.449c.353 0 .712-.076 1.052-.236l8.014-3.77a2.517 2.517 0 0 0 1.203-3.336z" fill="#57BBB9" data-color="2"></path>
    </g>
</svg>