<svg viewBox="30.499 29.499 139.002 141.001" height="200" width="200" xmlns="http://www.w3.org/2000/svg">
    <g>
        <path fill="#D6EADE" d="M147.529 138.337v29.668H67.538v-29.668h79.991z" data-color="1"></path>
        <path d="M43.946 68.053a2.498 2.498 0 0 0-2.499-2.496h-8.449a2.497 2.497 0 0 0-2.499 2.496 2.498 2.498 0 0 0 2.499 2.496h8.449a2.499 2.499 0 0 0 2.499-2.496z" fill="#57BBB9" data-color="2"></path>
        <path d="M45.215 54.729l-7.455-4.464a2.5 2.5 0 0 0-3.428.857 2.494 2.494 0 0 0 .858 3.424l7.455 4.464a2.5 2.5 0 0 0 3.428-.857 2.494 2.494 0 0 0-.858-3.424z" fill="#57BBB9" data-color="2"></path>
        <path d="M42.646 77.095L35.19 81.56a2.494 2.494 0 0 0-.858 3.424 2.498 2.498 0 0 0 3.428.857l7.455-4.465c1.184-.709 1.568-2.242.858-3.424s-2.245-1.564-3.427-.857z" fill="#57BBB9" data-color="2"></path>
        <path d="M96.982 80.632c4.118-.103 10.911-.513 17.628-.94 5.535-.326 10.886-.707 15.85-1.071l1.19-.09c.083-.006.164-.016.245-.03l1.365-.088c.619-.01 1.26.031 1.919.11 1.307.178 2.618.557 3.886 1.123 2.433 1.098 4.595 2.944 6.097 5.212a15.112 15.112 0 0 1 1.723 3.494c.194.622.392 1.282.504 1.901.006.036.014.072.022.107.068.301.108.605.154.933l.038.258.013.081.093 2.036-.005.366a17.428 17.428 0 0 1-.205 1.933 16.724 16.724 0 0 1-.968 3.469c-.775 1.962-2.004 3.842-3.546 5.429a18.052 18.052 0 0 1-2.165 1.896c-.737.534-1.473.995-2.202 1.377a17.227 17.227 0 0 1-3.853 1.49c-.447.122-.859.2-1.228.273l-.163.032c-.22.018-.644.032-1.133.049a5.535 5.535 0 0 0-3.917 1.824 5.442 5.442 0 0 0-1.393 4.08 5.504 5.504 0 0 0 5.488 5.091l.107-.001c2.809-.053 3.926-.095 4.416-.165 2.342-.324 4.484-.851 6.556-1.614a31.401 31.401 0 0 0 8.106-4.439 32.306 32.306 0 0 0 4.117-3.72 32.83 32.83 0 0 0 3.739-4.898 31.816 31.816 0 0 0 2.945-6.111c.374-1.029.709-2.17 1.03-3.506.083-.361.158-.724.247-1.169l.523-3.628-.012-.001c.02-.135.033-.278.038-.427l.022-.426c.035-.63.066-1.31.053-1.951.01-1.183-.071-2.481-.261-4.126a33.646 33.646 0 0 0-2.205-8.339c-2.378-5.893-6.445-11.022-11.778-14.842-1.614-1.137-3.024-1.993-4.433-2.691a36.503 36.503 0 0 0-4.927-2.035c-1.757-.565-3.539-1-5.324-1.297a42.57 42.57 0 0 0-1.398-.185l-1.905-.208-.002.016a4.577 4.577 0 0 0-.477-.042l-1.145-.087a1120.31 1120.31 0 0 0-15.833-1.07l-3.496-.227c-4.959-.325-10.579-.693-14.136-.791-15.134-.418-28.216-8.857-34.14-22.024a2.493 2.493 0 0 0-2.803-1.417 2.496 2.496 0 0 0-1.975 2.44v69.742c0 1.178.825 2.196 1.979 2.441a2.501 2.501 0 0 0 2.802-1.425c5.925-13.267 19.003-21.745 34.133-22.122zM63.069 92.601V41.078c7.759 10.242 20.026 16.53 33.782 16.91 3.462.095 9.032.46 13.947.782l3.517.228c5.503.325 10.834.704 15.768 1.066l1.179.09c.051.004.102.007.152.008l1.967.201c.415.05.84.101 1.203.157a32.38 32.38 0 0 1 4.579 1.118c1.38.45 2.805 1.04 4.242 1.755 1.178.584 2.379 1.315 3.762 2.289 4.48 3.209 8.045 7.699 10.045 12.655a28.65 28.65 0 0 1 1.875 7.072c.16 1.394.231 2.497.223 3.537.01.545-.016 1.115-.047 1.66l-.023.452h.002c-.003.052-.006.101-.006.14l-.466 3.255a27.34 27.34 0 0 1-1.066 3.89 26.752 26.752 0 0 1-2.484 5.16 27.83 27.83 0 0 1-3.166 4.147 27.034 27.034 0 0 1-3.479 3.14 26.404 26.404 0 0 1-6.81 3.727c-1.748.643-3.497 1.072-5.501 1.35-.316.037-1.605.077-3.831.12-.308.011-.497-.201-.517-.469a.493.493 0 0 1 .128-.375.503.503 0 0 1 .364-.169c1.15-.038 1.483-.064 1.724-.101.037-.006.074-.012.111-.02l.255-.05a21.97 21.97 0 0 0 1.551-.347 22.104 22.104 0 0 0 4.907-1.903 23.146 23.146 0 0 0 2.81-1.758 23.08 23.08 0 0 0 2.795-2.442c2.034-2.094 3.588-4.477 4.614-7.075a21.647 21.647 0 0 0 1.523-7.117l.006-.474-.001-.102-.032-1.175-.004-.095-.087-1.319a2.513 2.513 0 0 0-.089-.535 14.911 14.911 0 0 0-.196-1.143c-.163-.88-.416-1.724-.662-2.512a20.192 20.192 0 0 0-2.315-4.714c-2.007-3.03-4.918-5.514-8.21-6.999a19.383 19.383 0 0 0-5.293-1.519 19.436 19.436 0 0 0-2.733-.15 2.622 2.622 0 0 0-.177.009l-1.684.106a2.54 2.54 0 0 0-.382.048l-.754.057c-4.94.362-10.271.742-15.785 1.067-6.678.424-13.413.831-17.446.932-13.757.342-26.026 6.649-33.785 16.958z" fill="#57BBB9" data-color="2"></path>
        <path d="M111.007 68.038a2.497 2.497 0 0 0 2.652-2.333 2.497 2.497 0 0 0-2.336-2.649l-3.54-.23c-4.944-.323-10.546-.69-14.092-.788-5.466-.151-10.698-1.344-15.548-3.545a2.495 2.495 0 1 0-2.068 4.544c5.46 2.479 11.341 3.821 17.478 3.991 3.452.095 9.004.459 13.903.779l3.551.231z" fill="#57BBB9" data-color="2"></path>
        <path d="M71.899 54.922a40.227 40.227 0 0 1-.679-.49 2.5 2.5 0 0 0-3.494.525 2.493 2.493 0 0 0 .525 3.49c.253.187.509.372.767.553a2.497 2.497 0 0 0 2.881-4.078z" fill="#57BBB9" data-color="2"></path>
        <path d="M167.001 162.212h-7.072v-9.042a2.498 2.498 0 0 0-2.499-2.496h-7.402v-12.338a2.498 2.498 0 0 0-2.499-2.496h-37.497v-4.939h37.497a2.497 2.497 0 0 0 2.499-2.496 2.498 2.498 0 0 0-2.499-2.496h-37.497v-3.561c0-1.378-1.119-2.496-2.499-2.496s-2.499 1.117-2.499 2.496v3.561H67.538a2.497 2.497 0 0 0-2.499 2.496 2.498 2.498 0 0 0 2.499 2.496h37.497v4.939H67.538a2.497 2.497 0 0 0-2.499 2.496v29.668a2.498 2.498 0 0 0 2.499 2.496h79.992a2.497 2.497 0 0 0 2.499-2.496v-12.338h4.903v9.042a2.498 2.498 0 0 0 2.499 2.496h9.571a2.497 2.497 0 0 0 2.499-2.496 2.5 2.5 0 0 0-2.5-2.496zm-21.97 3.297H70.037v-24.676h74.994v24.676z" fill="#57BBB9" data-color="2"></path>
        <path fill="#57BBB9" d="M81.85 157.479a2.833 2.833 0 0 1-2.834 2.831 2.833 2.833 0 0 1-2.834-2.831 2.833 2.833 0 0 1 2.834-2.831 2.833 2.833 0 0 1 2.834 2.831z" data-color="2"></path>
    </g>
</svg>