<svg viewBox="48 39.5 103.999 121" height="200" width="200" xmlns="http://www.w3.org/2000/svg">
    <g>
        <path fill="#D6EADE" d="M80.335 101.128L100 158.01l-49.505-56.882 13.593-23.412H89.38l-9.045 23.412z" data-color="1"></path>
        <path d="M151.592 102.486c.08-.122.15-.248.207-.38.009-.021.014-.043.022-.065.046-.117.083-.236.111-.358.01-.046.017-.092.025-.138.019-.111.03-.223.034-.336.001-.027.008-.053.008-.081 0-.015-.004-.029-.004-.044a2.447 2.447 0 0 0-.046-.451l-.014-.051a2.343 2.343 0 0 0-.116-.371c-.019-.048-.042-.093-.063-.139-.023-.05-.041-.101-.068-.149l-13.594-24.534a2.497 2.497 0 0 0-2.184-1.285H64.088c-.908 0-1.744.492-2.184 1.285L48.311 99.923a2.485 2.485 0 0 0 .3 2.837l49.505 56.882c.015.017.035.03.05.047.046.05.091.101.141.147.032.029.067.054.1.082l.051.042c.025.02.047.041.073.06.043.031.088.058.133.086.043.027.086.053.13.077.047.026.094.053.143.076.032.015.066.026.098.04l.08.032c.025.009.046.024.071.033l.027.007c.06.02.122.033.184.049.04.01.079.02.12.028.029.006.057.015.086.02a2.48 2.48 0 0 0 .792 0c.029-.005.057-.014.086-.02.041-.008.08-.019.12-.029.062-.015.124-.029.184-.049l.027-.007c.025-.009.046-.023.071-.033l.08-.032c.033-.014.066-.025.098-.04.049-.023.095-.05.143-.076.045-.025.088-.05.13-.077.045-.028.09-.055.133-.086.026-.019.048-.04.073-.06l.051-.042c.033-.028.068-.053.1-.082.05-.046.095-.097.141-.147.016-.017.035-.029.05-.047l49.505-56.882c.045-.051.08-.108.12-.162.03-.036.06-.072.085-.111zm-6.317-3.847h-10.038c-1.378 0-2.495 1.114-2.495 2.489s1.117 2.489 2.495 2.489h8.796l-37.478 43.063 15.468-44.74c.02-.058.029-.118.044-.177.017-.062.035-.123.047-.187.021-.112.029-.225.034-.338.002-.037.011-.072.011-.109l-.002-.02a2.441 2.441 0 0 0-.047-.467c-.009-.045-.026-.086-.037-.13-.024-.093-.045-.187-.08-.278l-8.172-21.15h20.619l10.835 19.555zm-36.801-19.556l7.556 19.556h-12.555c-1.378 0-2.495 1.114-2.495 2.489s1.117 2.489 2.495 2.489h12.691L100 150.376l-17.01-49.201 8.536-22.093h16.948zm-42.914 0h20.619l-7.556 19.556h-9.86c-1.378 0-2.495 1.114-2.495 2.489s1.117 2.489 2.495 2.489h9.794l14.888 43.063-39.922-45.871L65.56 79.083z" fill="#57BBB9" data-color="2"></path>
        <path d="M100 56.485a2.492 2.492 0 0 0 2.495-2.489V41.989c0-1.375-1.117-2.489-2.495-2.489s-2.495 1.114-2.495 2.489v12.007A2.492 2.492 0 0 0 100 56.485z" fill="#57BBB9" data-color="2"></path>
        <path d="M116.311 60.61a2.495 2.495 0 0 0 3.46-.694l7.063-10.595a2.486 2.486 0 0 0-.696-3.452 2.499 2.499 0 0 0-3.459.694l-7.063 10.595a2.487 2.487 0 0 0 .695 3.452z" fill="#57BBB9" data-color="2"></path>
        <path d="M80.23 59.916a2.494 2.494 0 0 0 3.46.694 2.487 2.487 0 0 0 .696-3.452l-7.063-10.595a2.498 2.498 0 0 0-3.459-.694 2.487 2.487 0 0 0-.696 3.452l7.062 10.595z" fill="#57BBB9" data-color="2"></path>
    </g>
</svg>